<mxfile host="app.diagrams.net" modified="2023-04-05T08:36:13.904Z" agent="Mozilla/5.0 (Macintosh; Intel Mac OS X 10_15_7) AppleWebKit/605.1.15 (KHTML, like Gecko) Version/16.4 Safari/605.1.15" version="21.1.2" etag="h2vXFVBROCugtJaNc78k" type="github">
  <diagram name="Страница 1" id="4D4WXR2GajQuW5ZMK-7h">
    <mxGraphModel>
      <root>
        <mxCell id="0" />
        <mxCell id="1" parent="0" />
      </root>
    </mxGraphModel>
  </diagram>
</mxfile>
